<svg viewBox="0 0 240 240" xmlns="http://www.w3.org/2000/svg">
<line stroke="black" x1="33.39747" x2="206.60255" y1="69.999985" y2="70.00002"/>
<line stroke="black" x1="206.60255" x2="206.60255" y1="70.00002" y2="70.00002"/>
<line stroke="black" x1="206.60255" x2="119.99997" y1="70.00002" y2="220"/>
<line stroke="black" x1="119.99997" x2="33.39747" y1="220" y2="69.999985"/>
<line stroke="black" x1="33.39747" x2="119.99997" y1="69.999985" y2="220"/>
<line stroke="black" x1="119.99997" x2="119.99997" y1="220" y2="220"/>
<line stroke="black" x1="119.99997" x2="206.60255" y1="220" y2="70.00002"/>
<line stroke="black" x1="206.60255" x2="33.39747" y1="70.00002" y2="69.999985"/>
<line stroke="black" x1="33.39747" x2="206.60255" y1="69.999985" y2="70.00002"/>
<line stroke="black" x1="206.60255" x2="206.60255" y1="70.00002" y2="70.00002"/>
<line stroke="black" x1="206.60255" x2="119.99997" y1="70.00002" y2="220"/>
<line stroke="black" x1="119.99997" x2="33.39747" y1="220" y2="69.999985"/>
<line stroke="black" x1="33.39747" x2="119.99997" y1="69.999985" y2="220"/>
<line stroke="black" x1="119.99997" x2="119.99997" y1="220" y2="220"/>
<line stroke="black" x1="119.99997" x2="206.60255" y1="220" y2="70.00002"/>
<line stroke="black" x1="206.60255" x2="33.39747" y1="70.00002" y2="69.999985"/>
<line stroke="black" x1="33.39747" x2="206.60255" y1="69.999985" y2="70.00002"/>
<line stroke="black" x1="206.60255" x2="206.60255" y1="70.00002" y2="70.00002"/>
<line stroke="black" x1="206.60255" x2="119.99997" y1="70.00002" y2="220"/>
<line stroke="black" x1="119.99997" x2="33.39747" y1="220" y2="69.999985"/>
<line stroke="black" x1="33.39747" x2="119.99997" y1="69.999985" y2="220"/>
<line stroke="black" x1="119.99997" x2="119.99997" y1="220" y2="220"/>
<line stroke="black" x1="119.99997" x2="206.60255" y1="220" y2="70.00002"/>
<line stroke="black" x1="206.60255" x2="33.39747" y1="70.00002" y2="69.999985"/>
<line stroke="black" x1="33.39747" x2="206.60255" y1="69.999985" y2="70.00002"/>
<line stroke="black" x1="206.60255" x2="206.60255" y1="70.00002" y2="70.00002"/>
<line stroke="black" x1="206.60255" x2="119.99997" y1="70.00002" y2="220"/>
<line stroke="black" x1="119.99997" x2="33.39747" y1="220" y2="69.999985"/>
<line stroke="black" x1="33.39747" x2="119.99997" y1="69.999985" y2="220"/>
<line stroke="black" x1="119.99997" x2="119.99997" y1="220" y2="220"/>
<line stroke="black" x1="119.99997" x2="206.60255" y1="220" y2="70.00002"/>
<line stroke="black" x1="206.60255" x2="33.39747" y1="70.00002" y2="69.999985"/>
<line stroke="black" x1="33.39747" x2="206.60255" y1="69.999985" y2="70.00002"/>
<line stroke="black" x1="206.60255" x2="206.60255" y1="70.00002" y2="70.00002"/>
<line stroke="black" x1="206.60255" x2="119.99997" y1="70.00002" y2="220"/>
<line stroke="black" x1="119.99997" x2="33.39747" y1="220" y2="69.999985"/>
<line stroke="black" x1="33.39747" x2="119.99997" y1="69.999985" y2="220"/>
<line stroke="black" x1="119.99997" x2="119.99997" y1="220" y2="220"/>
<line stroke="black" x1="119.99997" x2="206.60255" y1="220" y2="70.00002"/>
<line stroke="black" x1="206.60255" x2="33.39747" y1="70.00002" y2="69.999985"/>
<line stroke="black" x1="33.39747" x2="206.60255" y1="69.999985" y2="70.00002"/>
<line stroke="black" x1="206.60255" x2="206.60255" y1="70.00002" y2="70.00002"/>
<line stroke="black" x1="206.60255" x2="119.99997" y1="70.00002" y2="220"/>
<line stroke="black" x1="119.99997" x2="33.39747" y1="220" y2="69.999985"/>
<line stroke="black" x1="33.39747" x2="119.99997" y1="69.999985" y2="220"/>
<line stroke="black" x1="119.99997" x2="119.99997" y1="220" y2="220"/>
<line stroke="black" x1="119.99997" x2="206.60255" y1="220" y2="70.00002"/>
<line stroke="black" x1="206.60255" x2="33.39747" y1="70.00002" y2="69.999985"/>
<line stroke="black" x1="33.39747" x2="206.60255" y1="69.999985" y2="70.00002"/>
<line stroke="black" x1="206.60255" x2="206.60255" y1="70.00002" y2="70.00002"/>
<line stroke="black" x1="206.60255" x2="119.99997" y1="70.00002" y2="220"/>
<line stroke="black" x1="119.99997" x2="33.39747" y1="220" y2="69.999985"/>
<line stroke="black" x1="33.39747" x2="119.99997" y1="69.999985" y2="220"/>
<line stroke="black" x1="119.99997" x2="119.99997" y1="220" y2="220"/>
<line stroke="black" x1="119.99997" x2="206.60255" y1="220" y2="70.00002"/>
<line stroke="black" x1="206.60255" x2="33.39747" y1="70.00002" y2="69.999985"/>
<line stroke="black" x1="33.39747" x2="206.60255" y1="69.999985" y2="70.00002"/>
<line stroke="black" x1="206.60255" x2="206.60255" y1="70.00002" y2="70.00002"/>
<line stroke="black" x1="206.60255" x2="119.99997" y1="70.00002" y2="220"/>
<line stroke="black" x1="119.99997" x2="33.39747" y1="220" y2="69.999985"/>
<line stroke="black" x1="33.39747" x2="119.99997" y1="69.999985" y2="220"/>
<line stroke="black" x1="119.99997" x2="119.99997" y1="220" y2="220"/>
<line stroke="black" x1="119.99997" x2="206.60255" y1="220" y2="70.00002"/>
<line stroke="black" x1="206.60255" x2="33.39747" y1="70.00002" y2="69.999985"/>
<line stroke="black" x1="33.39747" x2="206.60255" y1="69.999985" y2="70.00002"/>
<line stroke="black" x1="206.60255" x2="206.60255" y1="70.00002" y2="70.00002"/>
<line stroke="black" x1="206.60255" x2="119.99997" y1="70.00002" y2="220"/>
<line stroke="black" x1="119.99997" x2="33.39747" y1="220" y2="69.999985"/>
<line stroke="black" x1="33.39747" x2="119.99997" y1="69.999985" y2="220"/>
<line stroke="black" x1="119.99997" x2="119.99997" y1="220" y2="220"/>
<line stroke="black" x1="119.99997" x2="206.60255" y1="220" y2="70.00002"/>
<line stroke="black" x1="206.60255" x2="33.39747" y1="70.00002" y2="69.999985"/>
<line stroke="black" x1="33.39747" x2="206.60255" y1="69.999985" y2="70.00002"/>
<line stroke="black" x1="206.60255" x2="206.60255" y1="70.00002" y2="70.00002"/>
<line stroke="black" x1="206.60255" x2="119.99997" y1="70.00002" y2="220"/>
<line stroke="black" x1="119.99997" x2="33.39747" y1="220" y2="69.999985"/>
<line stroke="black" x1="33.39747" x2="119.99997" y1="69.999985" y2="220"/>
<line stroke="black" x1="119.99997" x2="119.99997" y1="220" y2="220"/>
<line stroke="black" x1="119.99997" x2="206.60255" y1="220" y2="70.00002"/>
<line stroke="black" x1="206.60255" x2="33.39747" y1="70.00002" y2="69.999985"/>
<line stroke="black" x1="33.39747" x2="206.60255" y1="69.999985" y2="70.00002"/>
<line stroke="black" x1="206.60255" x2="206.60255" y1="70.00002" y2="70.00002"/>
<line stroke="black" x1="206.60255" x2="119.99997" y1="70.00002" y2="220"/>
<line stroke="black" x1="119.99997" x2="33.39747" y1="220" y2="69.999985"/>
<line stroke="black" x1="33.39747" x2="119.99997" y1="69.999985" y2="220"/>
<line stroke="black" x1="119.99997" x2="119.99997" y1="220" y2="220"/>
<line stroke="black" x1="119.99997" x2="206.60255" y1="220" y2="70.00002"/>
<line stroke="black" x1="206.60255" x2="33.39747" y1="70.00002" y2="69.999985"/>
<line stroke="black" x1="33.39747" x2="206.60255" y1="69.999985" y2="70.00002"/>
<line stroke="black" x1="206.60255" x2="206.60255" y1="70.00002" y2="70.00002"/>
<line stroke="black" x1="206.60255" x2="119.99997" y1="70.00002" y2="220"/>
<line stroke="black" x1="119.99997" x2="33.39747" y1="220" y2="69.999985"/>
<line stroke="black" x1="33.39747" x2="119.99997" y1="69.999985" y2="220"/>
<line stroke="black" x1="119.99997" x2="206.60255" y1="220" y2="70.00002"/>
<line stroke="black" x1="119.99997" x2="33.39747" y1="220" y2="69.999985"/>
<line stroke="black" x1="206.60255" x2="206.60255" y1="70.00002" y2="70.00002"/>
<line stroke="black" x1="33.39747" x2="33.39747" y1="69.999985" y2="69.999985"/>
<line stroke="black" x1="206.60255" x2="33.39747" y1="70.00002" y2="69.999985"/>
<line stroke="black" x1="206.60255" x2="33.39747" y1="70.00002" y2="69.999985"/>
<line stroke="black" x1="119.99997" x2="33.39747" y1="220" y2="69.999985"/>
<circle cx="120" cy="120" fill="none" r="100" stroke="black" stroke-width="1.5"/>
</svg>