<svg viewBox="0 0 240 240" xmlns="http://www.w3.org/2000/svg"><path stroke="#000" d="M33.397 70h173.206M206.603 70 120 220M120 220 33.397 70M33.397 70 120 220M120 220l86.603-150M206.603 70H33.397M33.397 70h173.206M206.603 70 120 220M120 220 33.397 70M33.397 70 120 220M120 220l86.603-150M206.603 70H33.397M33.397 70h173.206M206.603 70 120 220M120 220 33.397 70M33.397 70 120 220M120 220l86.603-150M206.603 70H33.397M33.397 70h173.206M206.603 70 120 220M120 220 33.397 70M33.397 70 120 220M120 220l86.603-150M206.603 70H33.397M33.397 70h173.206M206.603 70 120 220M120 220 33.397 70M33.397 70 120 220M120 220l86.603-150M206.603 70H33.397M33.397 70h173.206M206.603 70 120 220M120 220 33.397 70M33.397 70 120 220M120 220l86.603-150M206.603 70H33.397M33.397 70h173.206M206.603 70 120 220M120 220 33.397 70M33.397 70 120 220M120 220l86.603-150M206.603 70H33.397M33.397 70h173.206M206.603 70 120 220M120 220 33.397 70M33.397 70 120 220M120 220l86.603-150M206.603 70H33.397M33.397 70h173.206M206.603 70 120 220M120 220 33.397 70M33.397 70 120 220M120 220l86.603-150M206.603 70H33.397M33.397 70h173.206M206.603 70 120 220M120 220 33.397 70M33.397 70 120 220M120 220l86.603-150M206.603 70H33.397M33.397 70h173.206M206.603 70 120 220M120 220 33.397 70M33.397 70 120 220M120 220l86.603-150M206.603 70H33.397M33.397 70h173.206M206.603 70 120 220M120 220 33.397 70M33.397 70 120 220M120 220l86.603-150M120 220 33.397 70M206.603 70H33.397M206.603 70H33.397M120 220 33.397 70"/><circle cx="120" cy="120" fill="none" r="100" stroke="#000" stroke-width="1.5"/></svg>
